<svg width="180" height="42" viewBox="0 0 180 42" fill="none" xmlns="http://www.w3.org/2000/svg">
<path d="M6.22525 11.6838C6.19978 11.5933 6.26629 11.5027 6.3611 11.5027H7.99275C8.07765 11.5027 8.14417 11.4277 8.13284 11.3442L7.89369 9.41946C7.8852 9.3487 7.82435 9.29492 7.75359 9.29492H0.141617C0.0383124 9.29492 -0.0296138 9.40107 0.0128401 9.49447L5.87147 22.4609C5.89411 22.5118 5.94506 22.5444 6.00025 22.5444H9.27061C9.31731 22.5444 9.35127 22.4991 9.33853 22.4538L6.22525 11.6838Z" fill="#FF319F"/>
<path d="M16.0171 7.23103C16.0128 7.15036 16.0765 7.08102 16.1586 7.08102H18.4242C18.4978 7.08102 18.5586 7.02441 18.5657 6.95223L18.7299 5.03317C18.7369 4.95108 18.6718 4.87891 18.5884 4.87891H9.13813C9.05464 4.87891 8.98954 4.95108 8.99662 5.03458L10.7089 22.4151C10.716 22.4873 10.7769 22.5425 10.8504 22.5425L16.7161 22.5368C16.7968 22.5368 16.8619 22.4689 16.8577 22.3868L16.0185 7.22962L16.0171 7.23103Z" fill="#FF319F"/>
<path d="M20.9106 0.460938H32.2005C32.2939 0.460938 32.3618 0.550098 32.3363 0.640673L26.2456 22.4396C26.2286 22.5005 26.1735 22.5429 26.1098 22.5429H18.4497C18.3648 22.5429 18.2997 22.4693 18.3096 22.3858L20.7705 0.586894C20.779 0.514717 20.8384 0.460938 20.9106 0.460938Z" fill="#FF319F"/>
<path d="M93.764 22.815C87.5601 22.815 84.6562 19.2331 84.6562 13.8849C84.6562 7.82199 88.4219 4.56836 93.9565 4.56836C95.5004 4.56836 96.7429 4.67309 98.4297 4.98585C98.4948 4.99718 98.5429 5.05237 98.5457 5.11747L98.8132 10.2251C98.816 10.2746 98.7679 10.3114 98.7212 10.2958C97.7122 9.97033 96.4457 9.65756 94.4291 9.65756C92.4126 9.65756 90.079 10.8846 90.079 13.6867C90.079 16.6842 91.9229 17.6805 93.8758 17.6805C94.5636 17.6805 94.9216 17.5971 94.9216 17.5971C94.957 17.5928 94.9824 17.5631 94.9824 17.5263V15.9653C94.9824 15.9257 94.9527 15.8945 94.9131 15.8945H92.5088C92.431 15.8945 92.3673 15.8308 92.3673 15.753V11.6191C92.3673 11.5412 92.431 11.4776 92.5088 11.4776H98.8429C98.9179 11.4776 98.9788 11.5356 98.9844 11.6106L99.6552 22.1499C99.6594 22.2235 99.6085 22.2886 99.5349 22.2985C97.79 22.5575 95.915 22.815 93.764 22.8136V22.815Z" fill="#FF319F"/>
<path d="M65.316 4.49219C61.0876 4.49219 58.4385 6.73393 57.8116 10.6556L55.9394 22.3865C55.9253 22.4728 55.9918 22.5506 56.0795 22.5506H61.2787C61.348 22.5506 61.4075 22.4997 61.4188 22.4318L62.0995 18.162C62.1051 18.128 62.1348 18.1025 62.1688 18.1025H64.0948C64.1387 18.1025 64.1712 18.1422 64.1641 18.1846L63.4934 22.3879C63.4792 22.4742 63.5457 22.5521 63.6335 22.5521H68.8241C68.8935 22.5521 68.9529 22.5011 68.9642 22.4332L70.8435 10.657C71.469 6.73393 69.543 4.4936 65.3146 4.4936L65.316 4.49219ZM63.2698 10.8367C63.3915 10.0696 63.8188 9.6479 64.4712 9.6479C64.7726 9.6479 65.0033 9.73989 65.1575 9.92104C65.3401 10.1362 65.3995 10.4588 65.3316 10.882L64.8943 13.6276C64.8887 13.6615 64.859 13.687 64.825 13.687H62.899C62.8551 13.687 62.8226 13.6474 62.8297 13.6049L63.2712 10.8367H63.2698Z" fill="#FF319F"/>
<path d="M51.5642 4.93166L50.6585 12.5046C50.6543 12.54 50.6246 12.5669 50.5878 12.5669H50.4264C50.3953 12.5669 50.367 12.5456 50.3585 12.5159L48.2188 4.90477C48.2019 4.84392 48.1467 4.80146 48.083 4.80146L45.5075 4.79297C45.4508 4.79297 45.3999 4.82693 45.3773 4.87788L42.0715 12.5414C42.0602 12.5669 42.0347 12.5839 42.0064 12.5839H41.8946C41.855 12.5839 41.8239 12.5527 41.8239 12.5131V4.93449C41.8239 4.85665 41.7602 4.79297 41.6824 4.79297H36.5907C36.5129 4.79297 36.4492 4.85665 36.4492 4.93449V22.3971C36.4492 22.475 36.5129 22.5386 36.5907 22.5386H41.7899C41.8451 22.5386 41.896 22.5061 41.9187 22.4552L45.8782 13.7033C45.8895 13.6778 45.915 13.6623 45.9433 13.6623H46.2362C46.2674 13.6623 46.2957 13.6835 46.3042 13.7132L48.884 22.4382C48.9023 22.4976 48.9561 22.5401 49.0198 22.5401L54.2487 22.5514C54.318 22.5514 54.3775 22.5004 54.3888 22.4325L57.1667 4.9727C57.1808 4.88637 57.1143 4.80854 57.0266 4.80854H51.7029C51.6307 4.80854 51.5713 4.86232 51.5628 4.93308L51.5642 4.93166Z" fill="#FF319F"/>
<path d="M80.1357 4.9551L77.7059 13.6305C77.6974 13.6617 77.6691 13.6829 77.638 13.6829H77.4102C77.3705 13.6829 77.3394 13.6517 77.3394 13.6121L77.3323 4.95793C77.3323 4.88009 77.2686 4.81641 77.1908 4.81641H71.7044C71.6223 4.81641 71.5572 4.88575 71.5628 4.96642L72.2209 15.0826C72.2435 15.425 72.3044 15.7647 72.4275 16.0845C72.9327 17.4021 74.2063 18.3093 75.6639 18.3093H76.3488C76.3729 18.3093 76.3898 18.3319 76.3828 18.3546L75.2577 22.3696C75.2323 22.4602 75.3002 22.5494 75.3936 22.5494H80.7315C80.7951 22.5494 80.8503 22.5069 80.8673 22.446L85.7453 5.03152C85.7707 4.94095 85.7028 4.85179 85.6094 4.85179H80.2715C80.2079 4.85179 80.1527 4.89424 80.1357 4.9551Z" fill="#FF319F"/>
<path d="M111.42 14.4642C111.413 14.4487 111.419 14.4303 111.433 14.4204C112.479 13.7693 113.215 12.3796 113.21 10.1223C113.21 10.0855 113.21 10.0473 113.21 10.0105C113.21 10.0048 113.21 9.99915 113.21 9.99349C113.21 9.98925 113.21 9.985 113.21 9.98075C113.206 9.73875 113.191 9.50099 113.161 9.26889C112.734 5.80863 110.618 4.80664 107.121 4.80664H100.111C100.029 4.80664 99.9634 4.87599 99.9691 4.95807L101.151 22.4306C101.156 22.5042 101.217 22.5622 101.292 22.5622H106.537C106.619 22.5622 106.684 22.4929 106.678 22.4108L106.208 15.9573C106.206 15.9163 106.238 15.8809 106.279 15.8809H106.783C106.814 15.8809 106.841 15.9007 106.851 15.9304L108.931 22.4632C108.949 22.5212 109.005 22.5622 109.066 22.5622H114.876C114.979 22.5622 115.047 22.4561 115.005 22.3627L111.42 14.4642ZM107.445 11.3507C107.212 11.5998 106.864 11.7272 106.412 11.7272H105.863C105.826 11.7272 105.795 11.6989 105.792 11.6606L105.597 8.76223C105.594 8.72119 105.627 8.68723 105.668 8.68723H106.225C107.166 8.68723 107.683 9.03821 107.765 10.1987C107.8 10.6997 107.691 11.0875 107.445 11.3507Z" fill="#FF319F"/>
<path d="M122.951 4.48047C117.351 4.48047 113.703 8.05819 113.703 13.5522C113.703 19.0461 117.353 22.6252 122.951 22.6252C128.549 22.6252 132.251 19.0221 132.251 13.5522C132.251 8.08225 128.578 4.48047 122.951 4.48047ZM122.976 16.7775C121.152 16.7775 119.911 15.467 119.911 13.5507C119.911 11.6345 121.152 10.2999 122.976 10.2999C124.801 10.2999 126.069 11.6104 126.069 13.5507C126.069 15.491 124.801 16.7775 122.976 16.7775Z" fill="#FF319F"/>
<path d="M171.322 4.84766H165.364C165.286 4.84766 165.223 4.91134 165.223 4.98918V22.4221C165.223 22.4999 165.286 22.5636 165.364 22.5636H171.322C176.762 22.5636 180.001 19.2902 180.001 13.7042C180.001 8.11969 176.762 4.84766 171.322 4.84766ZM171.295 17.7207H170.936C170.896 17.7207 170.865 17.6895 170.865 17.6499V9.76137C170.865 9.72174 170.896 9.6906 170.936 9.6906H171.295C173.016 9.6906 173.929 11.2148 173.929 13.7042C173.929 16.195 173.017 17.7193 171.295 17.7193V17.7207Z" fill="#FF319F"/>
<path d="M142.269 4.81782C142.2 4.81782 142.14 4.86877 142.129 4.9367L140.258 16.5983C140.116 17.4885 139.569 17.6753 139.134 17.6753C138.839 17.6753 138.615 17.5889 138.471 17.4205C138.306 17.2281 138.254 16.9365 138.316 16.5544L140.16 4.98057C140.174 4.89424 140.108 4.81641 140.02 4.81641H134.807C134.738 4.81641 134.678 4.86735 134.667 4.93529L132.789 16.7271C132.169 20.6076 134.109 22.8253 138.292 22.8253C142.475 22.8253 145.098 20.6076 145.718 16.7271L147.602 4.98057C147.617 4.89424 147.55 4.81641 147.462 4.81641H142.27L142.269 4.81782Z" fill="#FF319F"/>
<path d="M158.401 4.82422C158.323 4.82422 158.259 4.8879 158.259 4.96574L158.242 12.5557C158.242 12.5953 158.211 12.6264 158.172 12.6264H158.166C158.138 12.6264 158.112 12.6094 158.101 12.584L154.638 4.90772C154.615 4.85677 154.564 4.82422 154.509 4.82422H149.262C149.193 4.82422 149.133 4.87517 149.122 4.9431L146.35 22.4001C146.335 22.4864 146.402 22.5642 146.49 22.5642L151.676 22.5614C151.747 22.5614 151.806 22.5105 151.816 22.4397L153.233 12.6873C153.237 12.6519 153.267 12.625 153.303 12.625H153.367C153.394 12.625 153.42 12.6406 153.431 12.6646L158.214 22.485C158.238 22.5331 158.288 22.5642 158.341 22.5642H163.608C163.686 22.5642 163.75 22.5006 163.75 22.4227V4.96574C163.75 4.8879 163.686 4.82422 163.608 4.82422H158.402H158.401Z" fill="#FF319F"/>
<path d="M174.803 39.2931V37.9333L177.992 34.4006H174.854V32.99H179.937V34.3497L176.722 37.8825H180V39.2931H174.803Z" fill="#F3EFDA"/>
<path d="M168.912 39.2931V37.9333L172.101 34.4006H168.962V32.99H174.046V34.3497L170.831 37.8825H174.109V39.2931H168.912Z" fill="#F3EFDA"/>
<path d="M166.144 39.2932V32.9901H167.86V39.2932H166.144ZM167.008 32.1259C166.695 32.1259 166.437 32.0327 166.233 31.8464C166.038 31.66 165.941 31.427 165.941 31.1474C165.941 30.8679 166.038 30.6391 166.233 30.4612C166.437 30.2748 166.695 30.1816 167.008 30.1816C167.322 30.1816 167.576 30.2748 167.771 30.4612C167.966 30.6391 168.063 30.8679 168.063 31.1474C168.063 31.427 167.966 31.66 167.771 31.8464C167.576 32.0327 167.322 32.1259 167.008 32.1259Z" fill="#F3EFDA"/>
<path d="M159.809 39.2931V37.9333L162.998 34.4006H159.859V32.99H164.943V34.3497L161.727 37.8825H165.006V39.2931H159.809Z" fill="#F3EFDA"/>
<path d="M157.041 39.2932V32.9901H158.757V39.2932H157.041ZM157.905 32.1259C157.592 32.1259 157.333 32.0327 157.13 31.8464C156.935 31.66 156.838 31.427 156.838 31.1474C156.838 30.8679 156.935 30.6391 157.13 30.4612C157.333 30.2748 157.592 30.1816 157.905 30.1816C158.219 30.1816 158.473 30.2748 158.668 30.4612C158.863 30.6391 158.96 30.8679 158.96 31.1474C158.96 31.427 158.863 31.66 158.668 31.8464C158.473 32.0327 158.219 32.1259 157.905 32.1259Z" fill="#F3EFDA"/>
<path d="M151.86 39.4456C151.343 39.4456 150.898 39.3354 150.526 39.1152C150.161 38.8949 149.882 38.5687 149.687 38.1367C149.5 37.6961 149.407 37.1582 149.407 36.5228V32.99H151.11V36.3703C151.11 36.8955 151.216 37.2979 151.428 37.5775C151.64 37.8571 151.974 37.9969 152.432 37.9969C152.728 37.9969 152.987 37.9291 153.207 37.7936C153.436 37.6495 153.614 37.4504 153.741 37.1963C153.876 36.9337 153.944 36.616 153.944 36.2432V32.99H155.659V39.2931H154.16L154.02 38.251H154.007C153.813 38.6153 153.533 38.9076 153.169 39.1279C152.813 39.3397 152.377 39.4456 151.86 39.4456Z" fill="#F3EFDA"/>
<path d="M146.013 40.691L142.785 35.5951H144.755L148.071 40.691H146.013ZM143.916 39.4456C143.043 39.4456 142.272 39.2507 141.603 38.861C140.934 38.4713 140.409 37.9334 140.027 37.2471C139.646 36.5524 139.456 35.7518 139.456 34.8454C139.456 33.9389 139.646 33.1425 140.027 32.4563C140.409 31.7616 140.934 31.2194 141.603 30.8297C142.272 30.44 143.043 30.2451 143.916 30.2451C144.806 30.2451 145.585 30.44 146.254 30.8297C146.932 31.2194 147.457 31.7616 147.83 32.4563C148.203 33.1425 148.389 33.9389 148.389 34.8454C148.389 35.7518 148.203 36.5524 147.83 37.2471C147.457 37.9334 146.932 38.4713 146.254 38.861C145.585 39.2507 144.806 39.4456 143.916 39.4456ZM143.916 37.9079C144.475 37.9079 144.958 37.7851 145.365 37.5394C145.771 37.2853 146.085 36.9294 146.305 36.472C146.525 36.0145 146.635 35.4723 146.635 34.8454C146.635 34.21 146.525 33.6678 146.305 33.2188C146.085 32.7613 145.771 32.4097 145.365 32.164C144.958 31.9183 144.475 31.7955 143.916 31.7955C143.374 31.7955 142.899 31.9183 142.493 32.164C142.086 32.4097 141.768 32.7613 141.54 33.2188C141.319 33.6678 141.209 34.21 141.209 34.8454C141.209 35.4723 141.319 36.0145 141.54 36.472C141.768 36.9294 142.086 37.2853 142.493 37.5394C142.899 37.7851 143.374 37.9079 143.916 37.9079Z" fill="#F3EFDA"/>
<path d="M130.453 41.9998L131.978 38.5814H131.596L129.029 32.99H130.885L132.727 37.0438H132.753L134.392 32.99H136.209L132.27 41.9998H130.453Z" fill="#F3EFDA"/>
<path d="M126.525 39.2931V30.2324H128.241V39.2931H126.525Z" fill="#F3EFDA"/>
<path d="M121.75 39.293V32.9899H123.249L123.402 34.248H123.427C123.588 33.9091 123.779 33.638 123.999 33.4347C124.228 33.2313 124.486 33.0831 124.774 32.9899C125.062 32.8882 125.384 32.8374 125.74 32.8374V34.6546H125.27C124.99 34.6546 124.736 34.6843 124.507 34.7436C124.287 34.8029 124.096 34.9045 123.935 35.0486C123.783 35.1841 123.664 35.3663 123.579 35.595C123.503 35.8237 123.465 36.1076 123.465 36.4464V39.293H121.75Z" fill="#F3EFDA"/>
<path d="M117.533 39.4455C116.889 39.4455 116.317 39.3099 115.817 39.0388C115.326 38.7677 114.94 38.3865 114.661 37.8951C114.381 37.4038 114.241 36.8404 114.241 36.205C114.241 35.5442 114.377 34.9638 114.648 34.464C114.927 33.9557 115.313 33.5575 115.804 33.2695C116.304 32.9814 116.884 32.8374 117.545 32.8374C118.172 32.8374 118.723 32.973 119.197 33.2441C119.68 33.5152 120.053 33.8879 120.316 34.3623C120.587 34.8283 120.722 35.3578 120.722 35.9508C120.722 36.0355 120.722 36.133 120.722 36.2431C120.722 36.3448 120.714 36.4507 120.697 36.5608H115.474V35.506H118.981C118.956 35.1163 118.808 34.8029 118.536 34.5657C118.274 34.3285 117.943 34.2098 117.545 34.2098C117.249 34.2098 116.978 34.2776 116.732 34.4132C116.486 34.5403 116.291 34.7351 116.147 34.9977C116.003 35.2604 115.931 35.595 115.931 36.0017V36.3702C115.931 36.7175 115.999 37.0183 116.135 37.2724C116.27 37.5181 116.457 37.7087 116.694 37.8443C116.94 37.9798 117.215 38.0476 117.52 38.0476C117.833 38.0476 118.096 37.9798 118.308 37.8443C118.52 37.7003 118.68 37.5181 118.791 37.2979H120.544C120.417 37.696 120.214 38.0603 119.934 38.3907C119.655 38.7127 119.312 38.971 118.905 39.1659C118.498 39.3523 118.041 39.4455 117.533 39.4455Z" fill="#F3EFDA"/>
<path d="M102.808 39.293V32.9899H104.307L104.447 33.9176H104.472C104.667 33.5702 104.934 33.3034 105.273 33.117C105.612 32.9306 106.006 32.8374 106.455 32.8374C106.777 32.8374 107.069 32.8798 107.332 32.9645C107.594 33.0492 107.823 33.1763 108.018 33.3457C108.221 33.5152 108.391 33.7312 108.526 33.9938H108.539C108.776 33.6295 109.081 33.3457 109.454 33.1424C109.835 32.9391 110.267 32.8374 110.75 32.8374C111.284 32.8374 111.733 32.9518 112.097 33.1805C112.47 33.4008 112.754 33.727 112.948 34.159C113.143 34.5911 113.241 35.1248 113.241 35.7602V39.293H111.538V35.9127C111.538 35.3874 111.436 34.985 111.233 34.7055C111.03 34.4259 110.712 34.2861 110.28 34.2861C110 34.2861 109.755 34.3539 109.543 34.4894C109.331 34.6165 109.166 34.8071 109.047 35.0613C108.937 35.3154 108.882 35.6247 108.882 35.9889V39.293H107.166V35.9127C107.166 35.3874 107.065 34.985 106.861 34.7055C106.667 34.4259 106.349 34.2861 105.908 34.2861C105.637 34.2861 105.396 34.3581 105.184 34.5021C104.981 34.6377 104.82 34.8368 104.701 35.0994C104.582 35.3536 104.523 35.667 104.523 36.0398V39.293H102.808Z" fill="#F3EFDA"/>
<path d="M98.0439 39.293V32.9899H99.5435L99.696 34.248H99.7214C99.8823 33.9091 100.073 33.638 100.293 33.4347C100.522 33.2313 100.78 33.0831 101.068 32.9899C101.356 32.8882 101.678 32.8374 102.034 32.8374V34.6546H101.564C101.284 34.6546 101.03 34.6843 100.802 34.7436C100.581 34.8029 100.391 34.9045 100.23 35.0486C100.077 35.1841 99.9586 35.3663 99.8739 35.595C99.7976 35.8237 99.7595 36.1076 99.7595 36.4464V39.293H98.0439Z" fill="#F3EFDA"/>
<path d="M93.7004 39.4455C93.0989 39.4455 92.5525 39.3057 92.0611 39.0261C91.5698 38.7465 91.1801 38.3568 90.892 37.857C90.6124 37.3572 90.4727 36.7853 90.4727 36.1414C90.4727 35.4891 90.6167 34.9173 90.9047 34.4259C91.1928 33.926 91.5825 33.5363 92.0738 33.2568C92.5652 32.9772 93.1116 32.8374 93.7132 32.8374C94.3231 32.8374 94.8738 32.9772 95.3652 33.2568C95.8565 33.5363 96.242 33.926 96.5216 34.4259C96.8096 34.9173 96.9536 35.4891 96.9536 36.1414C96.9536 36.7938 96.8096 37.3699 96.5216 37.8697C96.2335 38.3611 95.8438 38.7465 95.3525 39.0261C94.8696 39.3057 94.3189 39.4455 93.7004 39.4455ZM93.7132 37.9841C93.9843 37.9841 94.2299 37.9163 94.4502 37.7807C94.6789 37.6367 94.8611 37.4292 94.9966 37.1581C95.1407 36.887 95.2127 36.5481 95.2127 36.1414C95.2127 35.7348 95.1407 35.3959 94.9966 35.1248C94.8611 34.8452 94.6832 34.6377 94.4629 34.5021C94.2426 34.3666 93.997 34.2988 93.7259 34.2988C93.4548 34.2988 93.2048 34.3666 92.9761 34.5021C92.7474 34.6377 92.5652 34.8452 92.4297 35.1248C92.2941 35.3959 92.2263 35.7348 92.2263 36.1414C92.2263 36.5481 92.2941 36.887 92.4297 37.1581C92.5652 37.4292 92.7431 37.6367 92.9634 37.7807C93.1921 37.9163 93.4421 37.9841 93.7132 37.9841Z" fill="#F3EFDA"/>
<path d="M86.8519 39.2931V32.4055C86.8519 31.8802 86.9409 31.4608 87.1188 31.1474C87.3052 30.8255 87.5636 30.5925 87.894 30.4485C88.2244 30.3044 88.6141 30.2324 89.0631 30.2324H89.762V31.6811H89.3299C89.0588 31.6811 88.864 31.7362 88.7454 31.8463C88.6268 31.9565 88.5675 32.1386 88.5675 32.3928V39.2931H86.8519ZM86.0005 34.4006V32.99H89.9018V34.4006H86.0005Z" fill="#F3EFDA"/>
</svg>
