<svg width="32" height="32" viewBox="0 0 32 32" fill="none" xmlns="http://www.w3.org/2000/svg">
<g clip-path="url(#clip0_4381_15044)">
<path d="M32 0H0V32H32V0Z" fill="#3B142A"/>
<path d="M8.70735 16.1385C8.68871 16.0723 8.73736 16.006 8.80673 16.006H10.0004C10.0625 16.006 10.1111 15.9512 10.1028 15.89L9.92787 14.4821C9.92164 14.4304 9.87718 14.391 9.82535 14.391H4.25692C4.18135 14.391 4.13166 14.4687 4.16271 14.537L8.44854 24.0217C8.4651 24.059 8.50238 24.0827 8.54275 24.0827H10.9352C10.9693 24.0827 10.9942 24.0497 10.9848 24.0166L8.70735 16.1385Z" fill="#FF319F"/>
<path d="M15.871 12.8817C15.8679 12.8227 15.9145 12.7719 15.9746 12.7719H17.6319C17.6858 12.7719 17.7303 12.7305 17.7355 12.6777L17.8556 11.2739C17.8608 11.2139 17.8131 11.1611 17.752 11.1611H10.8388C10.7777 11.1611 10.7301 11.2139 10.7352 11.275L11.9879 23.9886C11.9931 24.0414 12.0376 24.0818 12.0914 24.0818L16.3824 24.0776C16.4414 24.0776 16.489 24.0279 16.486 23.9678L15.872 12.8806L15.871 12.8817Z" fill="#FF319F"/>
<path d="M19.4519 7.9292H27.7109C27.7793 7.9292 27.8289 7.99442 27.8103 8.06067L23.3547 24.0062C23.3423 24.0508 23.3019 24.0818 23.2553 24.0818H17.6517C17.5895 24.0818 17.5419 24.0279 17.5492 23.9669L19.3494 8.02134C19.3556 7.96854 19.3992 7.9292 19.4519 7.9292Z" fill="#FF319F"/>
</g>
<defs>
<clipPath id="clip0_4381_15044">
<rect width="32" height="32" rx="4" fill="white"/>
</clipPath>
</defs>
</svg>
