<svg width="256" height="256" viewBox="0 0 256 256" fill="none" xmlns="http://www.w3.org/2000/svg">
<g clip-path="url(#clip0_4381_15050)">
<path d="M256 0H0V256H256V0Z" fill="#3B142A"/>
<path d="M69.6588 129.108C69.5097 128.578 69.8989 128.048 70.4538 128.048H80.0029C80.4998 128.048 80.8887 127.609 80.8223 127.12L79.4229 115.857C79.3731 115.443 79.0174 115.128 78.6028 115.128H34.0554C33.4508 115.128 33.0533 115.749 33.3017 116.296L67.5883 192.173C67.7208 192.472 68.019 192.662 68.342 192.662H87.4813C87.7546 192.662 87.9533 192.398 87.8785 192.133L69.6588 129.108Z" fill="#FF319F"/>
<path d="M126.968 103.053C126.943 102.581 127.316 102.175 127.796 102.175H141.056C141.486 102.175 141.842 101.844 141.884 101.421L142.845 90.1915C142.886 89.7112 142.505 89.2891 142.016 89.2891H86.7103C86.2217 89.2891 85.8411 89.7112 85.8819 90.1998L95.9029 191.909C95.9444 192.331 96.3009 192.654 96.7313 192.654L131.059 192.621C131.531 192.621 131.912 192.223 131.888 191.743L126.976 103.045L126.968 103.053Z" fill="#FF319F"/>
<path d="M155.615 63.4336H221.688C222.234 63.4336 222.632 63.9553 222.483 64.4854L186.838 192.05C186.739 192.406 186.415 192.655 186.042 192.655H141.214C140.716 192.655 140.335 192.223 140.394 191.735L154.795 64.1707C154.845 63.7483 155.193 63.4336 155.615 63.4336Z" fill="#FF319F"/>
</g>
<defs>
<clipPath id="clip0_4381_15050">
<rect width="256" height="256" rx="6" fill="white"/>
</clipPath>
</defs>
</svg>
